<?xml version="1.0" standalone="no"?>
<!DOCTYPE svg PUBLIC "-//W3C//DTD SVG 20010904//EN"
 "http://www.w3.org/TR/2001/REC-SVG-20010904/DTD/svg10.dtd">
<svg version="1.0" xmlns="http://www.w3.org/2000/svg"
 width="228.000000pt" height="121.000000pt" viewBox="0 0 228.000000 121.000000"
 preserveAspectRatio="xMidYMid meet">

<g transform="translate(0.000000,121.000000) scale(0.100000,-0.100000)"
fill="#000000" stroke="none">
<path d="M970 1093 c1 -7 68 -63 121 -101 14 -11 70 -14 251 -13 128 1 229 -2
224 -6 -4 -4 -40 -8 -79 -9 -148 -2 -169 -6 -82 -15 140 -15 279 -41 317 -60
20 -11 55 -36 78 -57 22 -22 40 -37 40 -36 0 2 -9 20 -21 40 -34 61 -24 67 96
62 57 -2 103 -3 102 -2 -17 17 -308 64 -393 64 -26 0 -44 5 -47 14 -8 21 -243
103 -330 115 -89 13 -277 15 -277 4z"/>
<path d="M742 1066 c-80 -26 -77 -24 -55 -49 10 -12 27 -34 36 -49 l17 -27
142 6 c79 3 145 7 147 9 8 7 -33 56 -73 88 -32 26 -47 31 -104 33 -37 2 -86
-3 -110 -11z"/>
<path d="M580 1041 c-25 -15 -67 -48 -95 -73 -27 -25 -79 -65 -115 -88 -36
-24 -57 -40 -47 -36 29 10 117 71 177 122 30 26 75 60 99 76 25 15 41 28 35
28 -5 0 -29 -13 -54 -29z"/>
<path d="M600 1006 c-42 -22 -88 -62 -79 -69 10 -7 189 6 189 14 0 5 -15 25
-32 44 l-33 34 -45 -23z"/>
<path d="M1515 880 c-11 -18 6 -50 35 -65 38 -20 57 -19 69 3 8 12 10 13 11 3
0 -8 3 -11 6 -8 4 4 1 14 -7 24 -12 15 -12 16 1 8 9 -5 8 0 -4 13 -21 24 -32
29 -20 10 4 -6 -3 -4 -17 5 -26 19 -65 22 -74 7z"/>
<path d="M1650 869 c0 -32 17 -55 49 -69 43 -18 65 -7 56 28 -6 26 -6 26 10 7
16 -19 16 -19 5 3 -7 13 -14 21 -17 18 -3 -3 -17 4 -31 14 -34 27 -72 27 -72
-1z"/>
<path d="M1824 876 c-8 -21 43 -95 72 -106 14 -6 64 -10 111 -10 l86 0 -6 33
-6 32 16 -30 c9 -16 18 -25 20 -18 6 16 -26 75 -37 68 -5 -3 -12 1 -17 9 -19
33 -227 53 -239 22z"/>
<path d="M1286 809 c39 -20 58 -67 57 -149 0 -80 -25 -148 -60 -169 -15 -8
-15 -10 -3 -11 27 0 62 31 81 74 21 46 24 112 8 170 -12 45 -59 96 -86 95 -16
0 -16 -1 3 -10z"/>
<path d="M535 720 c12 -45 29 -50 174 -50 75 0 147 -3 160 -7 15 -4 22 -2 18
4 -3 5 -32 10 -64 11 -117 4 -229 15 -248 25 -11 6 -26 17 -33 26 -11 14 -12
13 -7 -9z"/>
<path d="M595 639 c-22 -3 39 -6 135 -6 187 0 195 5 15 9 -60 2 -128 0 -150
-3z"/>
<path d="M1430 593 l0 -42 48 -8 c26 -4 166 -8 312 -8 276 0 362 10 375 42 10
28 -10 35 -56 22 -30 -9 -111 -13 -256 -13 -191 0 -214 2 -240 20 -19 13 -52
21 -106 24 l-77 5 0 -42z"/>
<path d="M1376 555 c-9 -19 -30 -49 -47 -65 l-33 -29 49 6 c46 5 94 28 95 45
0 4 -10 8 -22 10 -19 2 -23 9 -22 36 0 17 -1 32 -3 32 -1 0 -9 -16 -17 -35z"/>
<path d="M560 554 c106 -17 180 -23 275 -22 72 1 108 3 80 5 -27 2 -145 12
-261 23 -116 11 -217 20 -225 19 -8 -1 51 -12 131 -25z"/>
<path d="M1885 510 l-120 -5 36 -22 c42 -27 112 -30 163 -9 30 12 54 34 45 39
-2 1 -58 0 -124 -3z"/>
<path d="M620 280 c0 -91 3 -110 15 -110 8 0 15 5 15 12 0 9 3 9 12 0 16 -16
70 -15 91 1 25 18 37 70 23 98 -19 38 -59 56 -96 42 l-30 -11 0 39 c0 28 -4
39 -15 39 -12 0 -15 -19 -15 -110z m125 -4 c33 -50 -20 -104 -70 -72 -27 17
-32 45 -15 77 15 28 65 25 85 -5z"/>
<path d="M1090 280 c0 -91 3 -110 15 -110 11 0 15 13 15 53 0 57 12 77 45 77
33 0 45 -20 45 -77 0 -40 4 -53 15 -53 25 0 21 114 -5 140 -22 22 -51 26 -81
10 -17 -10 -19 -7 -19 30 0 29 -4 40 -15 40 -12 0 -15 -19 -15 -110z"/>
<path d="M1590 375 c0 -8 7 -15 15 -15 8 0 15 7 15 15 0 8 -7 15 -15 15 -8 0
-15 -7 -15 -15z"/>
<path d="M268 364 c-36 -19 -48 -43 -48 -94 0 -60 41 -100 102 -100 48 0 85
20 74 39 -5 7 -12 9 -19 3 -36 -28 -106 -14 -121 23 -12 33 -6 75 15 96 20 20
59 23 108 8 25 -8 22 17 -4 29 -34 16 -74 14 -107 -4z"/>
<path d="M915 356 c-16 -16 -22 -31 -18 -45 7 -26 15 -32 73 -51 52 -18 64
-44 26 -61 -18 -9 -33 -9 -56 0 -39 13 -61 4 -35 -16 29 -20 101 -17 125 7 40
40 20 74 -62 99 -39 13 -54 34 -35 49 20 16 41 19 69 11 33 -9 47 6 19 20 -34
19 -80 13 -106 -13z"/>
<path d="M458 319 c-30 -17 -20 -25 29 -25 37 1 48 -3 51 -16 3 -15 -4 -18
-36 -18 -25 0 -45 -6 -55 -18 -38 -41 -7 -72 68 -70 l55 2 0 58 c0 45 -5 63
-20 78 -21 21 -64 26 -92 9z m82 -93 c0 -22 -28 -39 -55 -32 -24 6 -33 25 -18
39 13 13 73 7 73 -7z"/>
<path d="M1302 319 c-35 -13 -17 -28 27 -22 33 5 41 2 50 -16 11 -20 9 -21
-24 -21 -48 0 -75 -16 -75 -44 0 -35 21 -46 79 -44 l51 2 0 63 c0 53 -3 64
-22 77 -25 18 -52 19 -86 5z m88 -88 c0 -16 -31 -41 -50 -41 -22 0 -34 15 -26
35 6 17 76 21 76 6z"/>
<path d="M1470 250 c0 -63 3 -80 15 -80 10 0 15 15 17 58 3 48 7 59 26 67 26
12 31 41 5 30 -10 -4 -24 -9 -30 -12 -7 -3 -13 0 -13 6 0 6 -4 11 -10 11 -6 0
-10 -33 -10 -80z"/>
<path d="M1590 250 c0 -64 3 -80 15 -80 12 0 15 16 15 80 0 64 -3 80 -15 80
-12 0 -15 -16 -15 -80z"/>
<path d="M1670 250 c0 -64 3 -80 15 -80 11 0 15 13 15 54 0 61 14 79 57 74 27
-3 28 -5 31 -65 2 -47 7 -63 17 -63 25 0 20 115 -5 140 -22 22 -51 26 -81 10
-13 -7 -19 -7 -19 0 0 5 -7 10 -15 10 -12 0 -15 -16 -15 -80z"/>
<path d="M1903 320 c-47 -19 -57 -83 -18 -120 20 -19 32 -22 70 -18 48 6 53 2
31 -27 -11 -15 -22 -17 -65 -12 -56 7 -69 -7 -23 -24 32 -13 90 -5 109 14 19
18 28 183 11 193 -6 4 -14 2 -16 -4 -2 -8 -11 -8 -28 -1 -30 11 -42 11 -71 -1z
m81 -36 c9 -8 16 -22 16 -30 0 -19 -36 -54 -57 -54 -41 0 -69 60 -41 88 17 17
64 15 82 -4z"/>
</g>
</svg>
